<svg id="Calque_1" data-name="Calque 1" xmlns="http://www.w3.org/2000/svg" viewBox="0 0 142.95 165.3"><defs><style>.cls-1{fill:#afddde;}.cls-2{fill:#fff;stroke:#fff;stroke-miterlimit:10;}.cls-3{font-size:16.78px;font-family:ExpletusSans-Medium, Expletus Sans;}.cls-4{fill:#2d8855;}.cls-5{fill:#a0d4b9;}.cls-6{fill:#7cc6a1;}.cls-7{fill:#237247;}.cls-8{fill:#39b473;}.cls-9{fill:#5bbc89;}</style></defs><title>logo</title><g id="fond"><circle class="cls-1" cx="71.64" cy="71.31" r="70.81" transform="translate(-14.47 18.37) rotate(-13.28)"/><path class="cls-1" d="M71.64,1A70.32,70.32,0,1,1,1.32,71.31,70.39,70.39,0,0,1,71.64,1m0-1A71.32,71.32,0,1,0,143,71.31,71.32,71.32,0,0,0,71.64,0Z"/></g><circle class="cls-2" cx="99.87" cy="37.99" r="22.2"/><text class="cls-3" transform="translate(0 160.38)">HOP PROPRETÉ</text><path class="cls-4" d="M6.34,70.72s15.43-.24,26.82,11.53c0,0,10.13,10.16,13.81,23l7.72,26.88Z"/><path class="cls-5" d="M132,71s3.38,19.7-9.22,35.39c0,0-10.83,13.92-26.36,19.86L64,138.71Z"/><path class="cls-6" d="M132.07,70.91s-19.68-3.48-35.43,9c0,0-14,10.77-20,26.27l-12.61,32.4Z"/><path class="cls-7" d="M6.15,70.5S1.77,85.9,10.48,99.82c0,0,7.44,12.31,19.33,18.75l24.82,13.49Z"/><path class="cls-8" d="M64.06.35s-26.76,14.45-31,40.7c0,0-4.14,23,6.28,43.27L61.08,126.8Z"/><path class="cls-9" d="M64,.35s26,15.85,29,42.29c0,0,3.06,23.14-8.31,42.88L61,126.8Z"/></svg>